IKResults
version=1
nRows=12
nColumns=29
inDegrees=yes

Units are S.I. units (second, meters, Newtons, ...)
If the header above contains a line with 'inDegrees', this indicates whether rotational values are in degrees (yes) or radians (no).

endheader
time	sternoclavicular_r2	sternoclavicular_r3	unrotscap_r3	unrotscap_r2	acromioclavicular_r2	acromioclavicular_r3	acromioclavicular_r1	unrothum_r1	unrothum_r3	unrothum_r2	elv_angle	shoulder_elv	shoulder1_r2	shoulder_rot	elbow_flexion	pro_sup	deviation	flexion	proximal_distal_r1	proximal_distal_r3	cmc_flexion	cmc_abduction	mp_flexion	ip_flexion	2mcp_flexion	2mcp_abduction	2pm_flexion	2md_flexion
      4.19000000	     -5.78070546	      2.44843400	     -2.44843400	      5.78070546	     -1.17047527	      9.45936938	      4.25192144	     -4.25192144	     -9.45936938	      1.17047527	     23.72930650	     23.88715910	    -23.72930650	     23.50919556	     95.56132884	      9.25228050	      0.16763034	      0.01446267	     11.71687127	      0.41432494	      3.36700001	     19.30498269	    -27.65299999	    -34.18399999	      1.78754020	      7.65299997	     26.93900001	     34.89800000
      4.20000000	     -5.75204238	      2.43629367	     -2.43629367	      5.75204238	     -1.16467158	      9.41246599	      4.23083869	     -4.23083869	     -9.41246599	      1.16467158	     24.23001237	     23.76871688	    -24.23001237	     24.06855365	     95.58250600	      8.68413548	      0.16097349	      0.01329926	     11.30187371	      0.38099585	      3.36700001	     19.31653012	    -27.65299999	    -34.18399999	      1.39350176	      7.65299997	     26.93900001	     34.89800000
      4.21000000	     -5.74483176	      2.43323959	     -2.43323959	      5.74483176	     -1.16321157	      9.40066676	      4.22553501	     -4.22553501	     -9.40066676	      1.16321157	     24.26490012	     23.73892101	    -24.26490012	     24.17331169	     95.62053959	      8.68339304	      0.16090845	      0.01345465	     11.29775430	      0.38544741	      3.36700001	     19.31628178	    -27.65299999	    -34.18399999	      1.39721636	      7.65299997	     26.93900001	     34.89800000
      4.22000000	     -5.66219415	      2.39823820	     -2.39823820	      5.66219415	     -1.14647914	      9.26544111	      4.16475201	     -4.16475201	     -9.26544111	      1.14647914	     24.96564537	     23.39744406	    -24.96564537	     24.86763222	     96.08188125	      9.00550919	      0.16471847	      0.00771991	     11.53587155	      0.22115921	      3.36700001	     19.59911978	    -27.65299999	    -34.18399999	      1.17341465	      7.65299997	     26.93900001	     34.89800000
      4.23000000	     -5.62316246	      2.38170622	     -2.38170622	      5.62316246	     -1.13857601	      9.20157085	      4.13604277	     -4.13604277	     -9.20157085	      1.13857601	     25.70579704	     23.23615644	    -25.70579704	     25.97499837	     96.40444182	      9.02920760	      0.18295834	     -0.00586099	     12.65673621	     -0.16790499	      3.36700001	     21.42921825	    -27.65299999	    -34.18399999	     -1.24620188	      7.65299997	     26.93900001	     34.89800000
      4.24000000	     -5.58460898	      2.36537678	     -2.36537678	      5.58460898	     -1.13076972	      9.13848311	      4.10768527	     -4.10768527	     -9.13848311	      1.13076972	     26.52862927	     23.07684489	    -26.52862927	     26.60476680	     96.63269502	      9.18029747	      0.18047789	      0.05878637	     12.50613674	      1.68410545	      3.36700001	     19.16577636	    -27.65299999	    -34.18399999	     -8.99009635	      7.65299997	     26.93900001	     34.89800000
      4.25000000	     -5.54467078	      2.34846085	     -2.34846085	      5.54467078	     -1.12268305	      9.07312947	      4.07830925	     -4.07830925	     -9.07312947	      1.12268305	     27.27411933	     22.91181138	    -27.27411933	     27.12547340	     96.71531330	      9.77733802	      0.19330296	      0.05428749	     13.27859176	      1.55522217	      3.36700001	     19.20168623	    -27.65299999	    -34.18399999	     -8.96096039	      7.65299997	     26.93900001	     34.89800000
      4.26000000	     -5.54047950	      2.34668562	     -2.34668562	      5.54047950	     -1.12183440	      9.06627098	      4.07522641	     -4.07522641	     -9.06627098	      1.12183440	     27.40169589	     22.89449206	    -27.40169589	     27.23795828	     96.71013976	      9.80321927	      0.19270371	      0.05465964	     13.24283330	      1.56588340	      3.36700001	     19.31091814	    -27.65299999	    -34.18399999	     -9.09566026	      7.65299997	     26.93900001	     34.89800000
      4.27000000	     -5.43542154	      2.30218803	     -2.30218803	      5.43542154	     -1.10056230	      8.89435735	      3.99795242	     -3.99795242	     -8.89435735	      1.10056230	     28.21661523	     22.46036924	    -28.21661523	     28.20613292	     96.91835433	     10.12194021	      0.19188420	      0.04888934	     13.19389004	      1.40057641	      3.36700001	     19.34027541	    -27.65299999	    -34.18399999	     -9.22635870	      7.65299997	     26.93900001	     34.89800000
      4.28000000	     -5.44337533	      2.30555688	     -2.30555688	      5.44337533	     -1.10217278	      8.90737270	      4.00380273	     -4.00380273	     -8.90737270	      1.10217278	     28.30978732	     22.49323609	    -28.30978732	     28.38904977	     96.84770585	     10.35841417	      0.18409889	      0.04144076	     12.72579558	      1.18719045	      3.36700001	     19.77609344	    -27.65299999	    -34.18399999	     -9.29977002	      7.65299997	     26.93900001	     34.89800000
      4.29000000	     -5.38091264	      2.27910063	     -2.27910063	      5.38091264	     -1.08952535	      8.80516066	      3.95785912	     -3.95785912	     -8.80516066	      1.08952535	     29.25313090	     22.23512635	    -29.25313090	     29.42979880	     96.89863799	     10.51085166	      0.18277938	      0.04245892	     12.64590417	      1.21635851	      3.36700001	     19.95380956	    -27.65299999	    -34.18399999	     -9.36467520	      7.65299997	     26.93900001	     34.89800000
      4.30000000	     -5.36193084	      2.27106083	     -2.27106083	      5.36193084	     -1.08568192	      8.77409942	      3.94389730	     -3.94389730	     -8.77409942	      1.08568192	     29.49669933	     22.15668934	    -29.49669933	     29.43283173	     96.84331189	     10.52292562	      0.18079509	      0.05247148	     12.52546160	      1.50319708	      3.36700001	     21.24440590	    -27.65299999	    -34.18399999	    -10.31756817	      7.65299997	     26.93900001	     34.89800000
